<svg width="33" height="28" viewBox="0 0 33 28" fill="none" xmlns="http://www.w3.org/2000/svg">
<path d="M15.5492 9.15607H17.8394V8.02169C17.8394 7.72084 17.9601 7.4323 18.1748 7.21957C18.3896 7.00683 18.6808 6.88731 18.9845 6.88731H22.4199C22.7236 6.88731 23.0148 7.00683 23.2296 7.21957C23.4443 7.4323 23.565 7.72084 23.565 8.02169V9.15607H28.1454V4.61856C28.1454 3.41514 27.6629 2.26101 26.8039 1.41006C25.9449 0.559112 24.7798 0.0810547 23.565 0.0810547H9.82362C8.60881 0.0810547 7.44375 0.559112 6.58475 1.41006C5.72575 2.26101 5.24316 3.41514 5.24316 4.61856V9.15607H9.82362V8.02169C9.82362 7.72084 9.94427 7.4323 10.159 7.21957C10.3738 7.00683 10.665 6.88731 10.9687 6.88731H14.4041C14.7078 6.88731 14.999 7.00683 15.2138 7.21957C15.4285 7.4323 15.5492 7.72084 15.5492 8.02169V9.15607Z" fill="white"/>
<path d="M6.38841 11.4248C4.86996 11.4248 3.4137 12.0224 2.34 13.0861C1.26629 14.1497 0.663086 15.5924 0.663086 17.0967V26.1717C0.663086 26.4726 0.783726 26.7611 0.998468 26.9738C1.21321 27.1866 1.50446 27.3061 1.80815 27.3061C2.11184 27.3061 2.40309 27.1866 2.61783 26.9738C2.83258 26.7611 2.95322 26.4726 2.95322 26.1717V20.4998H30.4348V26.1717C30.4348 26.4726 30.5554 26.7611 30.7702 26.9738C30.9849 27.1866 31.2762 27.3061 31.5798 27.3061C31.8835 27.3061 32.1748 27.1866 32.3895 26.9738C32.6043 26.7611 32.7249 26.4726 32.7249 26.1717V17.0967C32.7249 15.5924 32.1217 14.1497 31.048 13.0861C29.9743 12.0224 28.518 11.4248 26.9996 11.4248H6.38841Z" fill="white"/>
</svg>
